<?xml version="1.0" encoding="UTF-8" standalone="no"?><!DOCTYPE svg PUBLIC "-//W3C//DTD SVG 1.1//EN" "http://www.w3.org/Graphics/SVG/1.1/DTD/svg11.dtd"><!-- Generated by graphviz version 2.40.1 (20161225.0304)
 --><!-- Title: G Pages: 1 --><svg xmlns="http://www.w3.org/2000/svg" xmlns:xlink="http://www.w3.org/1999/xlink" width="975pt" height="764pt" viewBox="0.00 0.00 975.00 764.00">
<g id="graph0" class="graph" transform="scale(1 1) rotate(0) translate(4 760)">
<title>G</title>
<polygon fill="#ffffff" stroke="transparent" points="-4,4 -4,-760 971,-760 971,4 -4,4"/>
<g id="clust2" class="cluster">
<title>cluster_generic</title>
<polygon fill="#f2f2f2" stroke="#ffffff" stroke-width=".1" points="206,-208 206,-692 548,-692 548,-208 206,-208"/>
</g>
<g id="clust3" class="cluster">
<title>cluster_provider</title>
<polygon fill="#f2f2f2" stroke="#ffffff" stroke-width=".1" points="8,-136 8,-404 168,-404 168,-136 8,-136"/>
</g>
<g id="clust4" class="cluster">
<title>cluster_webcomponent_bridge</title>
<polygon fill="#f2f2f2" stroke="#ffffff" stroke-width=".1" points="176,-64 176,-188 622,-188 622,-64 176,-64"/>
</g>
<g id="clust5" class="cluster">
<title>cluster_dev_ots</title>
<polygon fill="#f2f2f2" stroke="#ffffff" stroke-width=".1" points="586,-208 586,-404 959,-404 959,-208 586,-208"/>
</g>
<!-- data_storage_sw -->
<g id="node1" class="node">
<title>data_storage_sw</title>
<polygon fill="#ffffff" stroke="transparent" stroke-width=".1" points="617.683,-540 556.317,-540 556.317,-504 617.683,-504 617.683,-540"/>
<text text-anchor="middle" x="587" y="-520.2" font-family="arial" font-size="6.00" fill="#000000">data_storage_sw</text>
</g>
<!-- create_object -->
<g id="node10" class="node">
<title>create_object</title>
<polygon fill="#ffff00" stroke="#000000" stroke-width=".1" points="288,-324 234,-324 234,-288 288,-288 288,-324"/>
<text text-anchor="middle" x="261" y="-304.2" font-family="arial" font-size="6.00" fill="#000000">create_object</text>
</g>
<!-- data_storage_sw&#45;&gt;create_object -->
<g id="edge28" class="edge">
<title>data_storage_sw-&gt;create_object</title>
<path fill="none" stroke="#000000" stroke-width=".1" d="M588.7179,-503.9725C590.8379,-470.2257 590.0234,-397.5443 549,-360 507.2696,-321.8087 350.9954,-340.8669 297,-324 295.6243,-323.5703 294.2367,-323.093 292.8479,-322.5785"/>
<polygon fill="#000000" stroke="#000000" stroke-width=".1" points="293.4299,-320.9267 288.1373,-320.7015 292.1343,-324.1781 293.4299,-320.9267"/>
</g>
<!-- edit_object -->
<g id="node11" class="node">
<title>edit_object</title>
<polygon fill="#ffff00" stroke="#000000" stroke-width=".1" points="472,-468 418,-468 418,-432 472,-432 472,-468"/>
<text text-anchor="middle" x="445" y="-448.2" font-family="arial" font-size="6.00" fill="#000000">edit_object</text>
</g>
<!-- data_storage_sw&#45;&gt;edit_object -->
<g id="edge22" class="edge">
<title>data_storage_sw-&gt;edit_object</title>
<path fill="none" stroke="#000000" stroke-width=".1" d="M556.0883,-506.0864C554.7071,-505.3804 553.3394,-504.6824 552,-504 526.8342,-491.1788 498.2744,-476.7727 476.9945,-466.0668"/>
<polygon fill="#000000" stroke="#000000" stroke-width=".1" points="477.549,-464.3869 472.2958,-463.7035 475.9763,-467.5136 477.549,-464.3869"/>
</g>
<!-- edit_collection -->
<g id="node15" class="node">
<title>edit_collection</title>
<polygon fill="#ffffff" stroke="#000000" stroke-width=".1" points="268.0082,-468 213.9918,-468 213.9918,-432 268.0082,-432 268.0082,-468"/>
<text text-anchor="middle" x="241" y="-448.2" font-family="arial" font-size="6.00" fill="#000000">edit_collection</text>
</g>
<!-- data_storage_sw&#45;&gt;edit_collection -->
<g id="edge24" class="edge">
<title>data_storage_sw-&gt;edit_collection</title>
<path fill="none" stroke="#000000" stroke-width=".1" d="M556.3071,-505.5628C554.8667,-504.9986 553.4267,-504.4735 552,-504 460.0465,-473.481 432.3955,-484.9283 337,-468 315.7866,-464.2356 291.9831,-459.774 273.3858,-456.2345"/>
<polygon fill="#000000" stroke="#000000" stroke-width=".1" points="273.5243,-454.4795 268.285,-455.262 272.8687,-457.9176 273.5243,-454.4795"/>
</g>
<!-- delete_object -->
<g id="node16" class="node">
<title>delete_object</title>
<polygon fill="#ffffff" stroke="#000000" stroke-width=".1" points="400,-468 346,-468 346,-432 400,-432 400,-468"/>
<text text-anchor="middle" x="373" y="-448.2" font-family="arial" font-size="6.00" fill="#000000">delete_object</text>
</g>
<!-- data_storage_sw&#45;&gt;delete_object -->
<g id="edge26" class="edge">
<title>data_storage_sw-&gt;delete_object</title>
<path fill="none" stroke="#000000" stroke-width=".1" d="M556.2563,-505.7062C554.8296,-505.1031 553.4064,-504.5307 552,-504 490.6815,-480.8623 470.449,-490.7889 409,-468 407.6487,-467.4989 406.2815,-466.9616 404.9097,-466.3974"/>
<polygon fill="#000000" stroke="#000000" stroke-width=".1" points="405.5287,-464.7587 400.2443,-464.3881 404.1442,-467.9732 405.5287,-464.7587"/>
</g>
<!-- start -->
<g id="node2" class="node">
<title>start</title>
<polygon fill="#ffffff" stroke="transparent" stroke-width=".1" points="498,-756 444,-756 444,-720 498,-720 498,-756"/>
<text text-anchor="middle" x="471" y="-736.2" font-family="arial" font-size="6.00" fill="#000000">start</text>
</g>
<!-- data_format -->
<g id="node4" class="node">
<title>data_format</title>
<polygon fill="#00ff00" stroke="#000000" stroke-width=".1" points="498,-684 444,-684 444,-648 498,-648 498,-684"/>
<text text-anchor="middle" x="471" y="-664.2" font-family="arial" font-size="6.00" fill="#000000">data_format</text>
</g>
<!-- start&#45;&gt;data_format -->
<g id="edge1" class="edge">
<title>start-&gt;data_format</title>
<path fill="none" stroke="#000000" stroke-width=".1" d="M471,-719.8314C471,-710.6078 471,-699.295 471,-689.4246"/>
<polygon fill="#000000" stroke="#000000" stroke-width=".1" points="472.7501,-689.4132 471,-684.4133 469.2501,-689.4133 472.7501,-689.4132"/>
</g>
<!-- end -->
<g id="node3" class="node">
<title>end</title>
<polygon fill="#ffffff" stroke="transparent" stroke-width=".1" points="431,-36 377,-36 377,0 431,0 431,-36"/>
<text text-anchor="middle" x="404" y="-16.2" font-family="arial" font-size="6.00" fill="#000000">end</text>
</g>
<!-- choose_dataset -->
<g id="node5" class="node">
<title>choose_dataset</title>
<polygon fill="#ffffff" stroke="#000000" stroke-width=".1" points="459.3545,-612 400.6455,-612 400.6455,-576 459.3545,-576 459.3545,-612"/>
<text text-anchor="middle" x="430" y="-592.2" font-family="arial" font-size="6.00" fill="#000000">choose_dataset</text>
</g>
<!-- data_format&#45;&gt;choose_dataset -->
<g id="edge3" class="edge">
<title>data_format-&gt;choose_dataset</title>
<path fill="none" stroke="#000000" stroke-width=".1" d="M460.654,-647.8314C455.3053,-638.4386 448.7228,-626.8791 443.0305,-616.8828"/>
<polygon fill="#000000" stroke="#000000" stroke-width=".1" points="444.4803,-615.8922 440.4853,-612.4133 441.4388,-617.6242 444.4803,-615.8922"/>
</g>
<!-- physical_schema -->
<g id="node29" class="node">
<title>physical_schema</title>
<polygon fill="#ffffff" stroke="#000000" stroke-width=".1" points="656.008,-324 593.992,-324 593.992,-288 656.008,-288 656.008,-324"/>
<text text-anchor="middle" x="625" y="-304.2" font-family="arial" font-size="6.00" fill="#000000">physical_schema</text>
</g>
<!-- data_format&#45;&gt;physical_schema -->
<g id="edge41" class="edge">
<title>data_format-&gt;physical_schema</title>
<path fill="none" stroke="#000000" stroke-width=".1" d="M498.202,-661.1605C581.7466,-645.533 829,-593.2631 829,-522 829,-522 829,-522 829,-450 829,-409.1184 838.393,-389.4134 810,-360 763.8834,-312.2261 727.751,-345.7117 665,-324 663.6506,-323.5331 662.2844,-323.0381 660.9109,-322.5215"/>
<polygon fill="#000000" stroke="#000000" stroke-width=".1" points="661.5215,-320.8813 656.2275,-320.6918 660.2478,-324.1413 661.5215,-320.8813"/>
</g>
<!-- view_object -->
<g id="node6" class="node">
<title>view_object</title>
<polygon fill="#00ff00" stroke="#000000" stroke-width=".1" points="377,-540 323,-540 323,-504 377,-504 377,-540"/>
<text text-anchor="middle" x="350" y="-520.2" font-family="arial" font-size="6.00" fill="#000000">view_object</text>
</g>
<!-- choose_dataset&#45;&gt;view_object -->
<g id="edge4" class="edge">
<title>choose_dataset-&gt;view_object</title>
<path fill="none" stroke="#000000" stroke-width=".1" d="M409.8126,-575.8314C398.9169,-566.0252 385.3973,-553.8576 373.9694,-543.5725"/>
<polygon fill="#000000" stroke="#000000" stroke-width=".1" points="375.0681,-542.2069 370.1809,-540.1628 372.7267,-544.8085 375.0681,-542.2069"/>
</g>
<!-- view_collection -->
<g id="node9" class="node">
<title>view_collection</title>
<polygon fill="#00ff00" stroke="#000000" stroke-width=".1" points="299.3378,-540 242.6622,-540 242.6622,-504 299.3378,-504 299.3378,-540"/>
<text text-anchor="middle" x="271" y="-520.2" font-family="arial" font-size="6.00" fill="#000000">view_collection</text>
</g>
<!-- choose_dataset&#45;&gt;view_collection -->
<g id="edge5" class="edge">
<title>choose_dataset-&gt;view_collection</title>
<path fill="none" stroke="#000000" stroke-width=".1" d="M400.466,-580.6261C373.1293,-568.2472 332.5374,-549.866 304.1132,-536.9947"/>
<polygon fill="#000000" stroke="#000000" stroke-width=".1" points="304.5838,-535.2868 299.3072,-534.8183 303.14,-538.4751 304.5838,-535.2868"/>
</g>
<!-- navigate_to_object -->
<g id="node7" class="node">
<title>navigate_to_object</title>
<polygon fill="#00ff00" stroke="#000000" stroke-width=".1" points="372.3554,-324 305.6446,-324 305.6446,-288 372.3554,-288 372.3554,-324"/>
<text text-anchor="middle" x="339" y="-304.2" font-family="arial" font-size="6.00" fill="#000000">navigate_to_object</text>
</g>
<!-- view_object&#45;&gt;navigate_to_object -->
<g id="edge8" class="edge">
<title>view_object-&gt;navigate_to_object</title>
<path fill="none" stroke="#000000" stroke-width=".1" d="M339.6427,-503.7092C328.7308,-485.0094 310.5808,-455.4609 292,-432 281.2668,-418.4478 271.4703,-420.0312 265,-404 257.6809,-385.8657 256.1401,-377.4334 265,-360 272.7708,-344.7097 287.1267,-332.7189 301.1407,-323.9611"/>
<polygon fill="#000000" stroke="#000000" stroke-width=".1" points="302.0951,-325.4291 305.4712,-321.3469 300.2863,-322.4328 302.0951,-325.4291"/>
</g>
<!-- navigate_to_collection -->
<g id="node8" class="node">
<title>navigate_to_collection</title>
<polygon fill="#ffff00" stroke="#000000" stroke-width=".1" points="349.8534,-396 274.1466,-396 274.1466,-360 349.8534,-360 349.8534,-396"/>
<text text-anchor="middle" x="312" y="-376.2" font-family="arial" font-size="6.00" fill="#000000">navigate_to_collection</text>
</g>
<!-- view_object&#45;&gt;navigate_to_collection -->
<g id="edge10" class="edge">
<title>view_object-&gt;navigate_to_collection</title>
<path fill="none" stroke="#000000" stroke-width=".1" d="M345.1873,-503.7623C338.3061,-477.6863 325.6568,-429.752 318.1191,-401.1881"/>
<polygon fill="#000000" stroke="#000000" stroke-width=".1" points="319.7416,-400.4776 316.7736,-396.0896 316.3574,-401.3707 319.7416,-400.4776"/>
</g>
<!-- view_object&#45;&gt;create_object -->
<g id="edge12" class="edge">
<title>view_object-&gt;create_object</title>
<path fill="none" stroke="#000000" stroke-width=".1" d="M326.269,-503.9459C314.7635,-494.2637 301.43,-481.5515 292,-468 282.0995,-453.7724 285.93,-446.856 277,-432 268.703,-418.1972 259.4289,-419.162 254,-404 245.2537,-379.573 249.3724,-349.5754 254.1558,-329.2508"/>
<polygon fill="#000000" stroke="#000000" stroke-width=".1" points="255.8783,-329.5751 255.3788,-324.3013 252.4805,-328.7355 255.8783,-329.5751"/>
</g>
<!-- view_object&#45;&gt;edit_object -->
<g id="edge16" class="edge">
<title>view_object-&gt;edit_object</title>
<path fill="none" stroke="#000000" stroke-width=".1" d="M373.9725,-503.8314C387.0237,-493.94 403.2452,-481.6458 416.8897,-471.3046"/>
<polygon fill="#000000" stroke="#000000" stroke-width=".1" points="418.1073,-472.5777 421.0352,-468.1628 415.9932,-469.7883 418.1073,-472.5777"/>
</g>
<!-- view_object&#45;&gt;delete_object -->
<g id="edge14" class="edge">
<title>view_object-&gt;delete_object</title>
<path fill="none" stroke="#000000" stroke-width=".1" d="M355.8039,-503.8314C358.7503,-494.6078 362.3641,-483.295 365.5171,-473.4246"/>
<polygon fill="#000000" stroke="#000000" stroke-width=".1" points="367.2635,-473.7087 367.118,-468.4133 363.9294,-472.6436 367.2635,-473.7087"/>
</g>
<!-- generic_code_complete -->
<g id="node17" class="node">
<title>generic_code_complete</title>
<polygon fill="#ffff00" stroke="#000000" stroke-width=".1" points="446.6858,-252 367.3142,-252 367.3142,-216 446.6858,-216 446.6858,-252"/>
<text text-anchor="middle" x="407" y="-232.2" font-family="arial" font-size="6.00" fill="#000000">generic_code_complete</text>
</g>
<!-- navigate_to_object&#45;&gt;generic_code_complete -->
<g id="edge9" class="edge">
<title>navigate_to_object-&gt;generic_code_complete</title>
<path fill="none" stroke="#000000" stroke-width=".1" d="M356.1593,-287.8314C365.27,-278.1847 376.5391,-266.2527 386.1507,-256.0758"/>
<polygon fill="#000000" stroke="#000000" stroke-width=".1" points="387.4488,-257.25 389.6097,-252.4133 384.9043,-254.8468 387.4488,-257.25"/>
</g>
<!-- navigate_to_collection&#45;&gt;generic_code_complete -->
<g id="edge11" class="edge">
<title>navigate_to_collection-&gt;generic_code_complete</title>
<path fill="none" stroke="#000000" stroke-width=".1" d="M343.1792,-359.8528C356.5502,-350.651 371.2946,-338.3709 381,-324 394.562,-303.9186 401.1447,-276.7268 404.2782,-257.5031"/>
<polygon fill="#000000" stroke="#000000" stroke-width=".1" points="406.0471,-257.512 405.0734,-252.3049 402.5873,-256.9827 406.0471,-257.512"/>
</g>
<!-- view_collection&#45;&gt;edit_collection -->
<g id="edge6" class="edge">
<title>view_collection-&gt;edit_collection</title>
<path fill="none" stroke="#000000" stroke-width=".1" d="M263.4297,-503.8314C259.5513,-494.5232 254.7863,-483.0872 250.6472,-473.1533"/>
<polygon fill="#000000" stroke="#000000" stroke-width=".1" points="252.2107,-472.3556 248.6722,-468.4133 248.9799,-473.7018 252.2107,-472.3556"/>
</g>
<!-- create_object&#45;&gt;generic_code_complete -->
<g id="edge13" class="edge">
<title>create_object-&gt;generic_code_complete</title>
<path fill="none" stroke="#000000" stroke-width=".1" d="M288.1162,-292.4154C291.1123,-290.9223 294.1198,-289.427 297,-288 319.5962,-276.8048 344.8505,-264.3996 365.4568,-254.3052"/>
<polygon fill="#000000" stroke="#000000" stroke-width=".1" points="366.3286,-255.8269 370.0493,-252.0561 364.7892,-252.6837 366.3286,-255.8269"/>
</g>
<!-- data_storage_google -->
<g id="node18" class="node">
<title>data_storage_google</title>
<polygon fill="#ffffff" stroke="#000000" stroke-width=".1" points="88.3601,-252 15.6399,-252 15.6399,-216 88.3601,-216 88.3601,-252"/>
<text text-anchor="middle" x="52" y="-232.2" font-family="arial" font-size="6.00" fill="#000000">data_storage_google</text>
</g>
<!-- create_object&#45;&gt;data_storage_google -->
<g id="edge29" class="edge">
<title>create_object-&gt;data_storage_google</title>
<path fill="none" stroke="#000000" stroke-width=".1" d="M233.8334,-297.6266C201.1583,-287.424 144.7411,-269.3888 97,-252 95.7548,-251.5464 94.4924,-251.0806 93.2198,-250.6056"/>
<polygon fill="#000000" stroke="#000000" stroke-width=".1" points="93.5703,-248.8673 88.2746,-248.7354 92.3322,-252.141 93.5703,-248.8673"/>
</g>
<!-- eo_relate_to_1 -->
<g id="node12" class="node">
<title>eo_relate_to_1</title>
<polygon fill="#ffffff" stroke="#000000" stroke-width=".1" points="540.0176,-396 483.9824,-396 483.9824,-360 540.0176,-360 540.0176,-396"/>
<text text-anchor="middle" x="512" y="-376.2" font-family="arial" font-size="6.00" fill="#000000">eo_relate_to_1</text>
</g>
<!-- edit_object&#45;&gt;eo_relate_to_1 -->
<g id="edge17" class="edge">
<title>edit_object-&gt;eo_relate_to_1</title>
<path fill="none" stroke="#000000" stroke-width=".1" d="M461.9069,-431.8314C470.8837,-422.1847 481.9871,-410.2527 491.4573,-400.0758"/>
<polygon fill="#000000" stroke="#000000" stroke-width=".1" points="492.7404,-401.2658 494.8654,-396.4133 490.1781,-398.8815 492.7404,-401.2658"/>
</g>
<!-- eo_relate_to_collection -->
<g id="node13" class="node">
<title>eo_relate_to_collection</title>
<polygon fill="#ffffff" stroke="#000000" stroke-width=".1" points="465.686,-396 388.314,-396 388.314,-360 465.686,-360 465.686,-396"/>
<text text-anchor="middle" x="427" y="-376.2" font-family="arial" font-size="6.00" fill="#000000">eo_relate_to_collection</text>
</g>
<!-- edit_object&#45;&gt;eo_relate_to_collection -->
<g id="edge20" class="edge">
<title>edit_object-&gt;eo_relate_to_collection</title>
<path fill="none" stroke="#000000" stroke-width=".1" d="M440.4578,-431.8314C438.1519,-422.6078 435.3237,-411.295 432.8562,-401.4246"/>
<polygon fill="#000000" stroke="#000000" stroke-width=".1" points="434.5138,-400.8395 431.6033,-396.4133 431.1183,-401.6884 434.5138,-400.8395"/>
</g>
<!-- edit_object&#45;&gt;data_storage_google -->
<g id="edge23" class="edge">
<title>edit_object-&gt;data_storage_google</title>
<path fill="none" stroke="#000000" stroke-width=".1" d="M417.91,-435.1397C414.9622,-433.9223 411.9577,-432.8396 409,-432 342.0335,-412.9915 150.2079,-448.886 97,-404 74.6213,-385.1214 60.5161,-299.108 54.8488,-257.1522"/>
<polygon fill="#000000" stroke="#000000" stroke-width=".1" points="56.5603,-256.7457 54.1679,-252.0193 53.0907,-257.206 56.5603,-256.7457"/>
</g>
<!-- eo_relate_to_1_delete -->
<g id="node14" class="node">
<title>eo_relate_to_1_delete</title>
<polygon fill="#ffffff" stroke="#000000" stroke-width=".1" points="531.694,-324 456.306,-324 456.306,-288 531.694,-288 531.694,-324"/>
<text text-anchor="middle" x="494" y="-304.2" font-family="arial" font-size="6.00" fill="#000000">eo_relate_to_1_delete</text>
</g>
<!-- eo_relate_to_1&#45;&gt;eo_relate_to_1_delete -->
<g id="edge18" class="edge">
<title>eo_relate_to_1-&gt;eo_relate_to_1_delete</title>
<path fill="none" stroke="#000000" stroke-width=".1" d="M507.4578,-359.8314C505.1519,-350.6078 502.3237,-339.295 499.8562,-329.4246"/>
<polygon fill="#000000" stroke="#000000" stroke-width=".1" points="501.5138,-328.8395 498.6033,-324.4133 498.1183,-329.6884 501.5138,-328.8395"/>
</g>
<!-- eo_relate_to_collection&#45;&gt;generic_code_complete -->
<g id="edge21" class="edge">
<title>eo_relate_to_collection-&gt;generic_code_complete</title>
<path fill="none" stroke="#000000" stroke-width=".1" d="M424.9994,-359.6975C422.9536,-341.4905 419.5764,-312.7718 416,-288 414.5562,-277.9994 412.7594,-266.9921 411.1518,-257.539"/>
<polygon fill="#000000" stroke="#000000" stroke-width=".1" points="412.8514,-257.0957 410.2816,-252.4634 409.4018,-257.6872 412.8514,-257.0957"/>
</g>
<!-- eo_relate_to_1_delete&#45;&gt;generic_code_complete -->
<g id="edge19" class="edge">
<title>eo_relate_to_1_delete-&gt;generic_code_complete</title>
<path fill="none" stroke="#000000" stroke-width=".1" d="M472.0462,-287.8314C460.1971,-278.0252 445.4946,-265.8576 433.0668,-255.5725"/>
<polygon fill="#000000" stroke="#000000" stroke-width=".1" points="433.9145,-254.0025 428.9467,-252.1628 431.683,-256.6989 433.9145,-254.0025"/>
</g>
<!-- edit_collection&#45;&gt;generic_code_complete -->
<g id="edge7" class="edge">
<title>edit_collection-&gt;generic_code_complete</title>
<path fill="none" stroke="#000000" stroke-width=".1" d="M231.9534,-431.8298C217.2522,-399.4251 192.8812,-331.0326 225,-288 241.4056,-266.0199 313.4072,-249.7953 361.7803,-241.133"/>
<polygon fill="#000000" stroke="#000000" stroke-width=".1" points="362.3507,-242.8094 366.9701,-240.2163 361.7419,-239.3628 362.3507,-242.8094"/>
</g>
<!-- edit_collection&#45;&gt;data_storage_google -->
<g id="edge25" class="edge">
<title>edit_collection-&gt;data_storage_google</title>
<path fill="none" stroke="#000000" stroke-width=".1" d="M213.7785,-448.3087C161.3225,-444.4217 49.342,-432.8644 26,-404 -8.4975,-361.3409 19.9229,-292.3371 38.7127,-256.7856"/>
<polygon fill="#000000" stroke="#000000" stroke-width=".1" points="40.3496,-257.4369 41.1788,-252.2048 37.2678,-255.7778 40.3496,-257.4369"/>
</g>
<!-- delete_object&#45;&gt;generic_code_complete -->
<g id="edge15" class="edge">
<title>delete_object-&gt;generic_code_complete</title>
<path fill="none" stroke="#000000" stroke-width=".1" d="M372.6048,-431.8419C372.5787,-413.5001 373.5632,-384.4585 379,-360 382.7251,-343.2417 388.5434,-340.5787 393,-324 398.9522,-301.8573 402.6531,-275.9247 404.7435,-257.5992"/>
<polygon fill="#000000" stroke="#000000" stroke-width=".1" points="406.5335,-257.3303 405.3412,-252.1688 403.0546,-256.9473 406.5335,-257.3303"/>
</g>
<!-- delete_object&#45;&gt;data_storage_google -->
<g id="edge27" class="edge">
<title>delete_object-&gt;data_storage_google</title>
<path fill="none" stroke="#000000" stroke-width=".1" d="M345.7582,-444.4817C326.5786,-440.6972 300.2767,-435.7093 277,-432 229.8543,-424.4871 96.7258,-438.7589 64,-404 26.6908,-364.373 36.8038,-293.9178 45.4512,-257.3995"/>
<polygon fill="#000000" stroke="#000000" stroke-width=".1" points="47.2189,-257.5385 46.7106,-252.2656 43.8197,-256.7047 47.2189,-257.5385"/>
</g>
<!-- ct_web_component -->
<g id="node23" class="node">
<title>ct_web_component</title>
<polygon fill="#ffffff" stroke="#000000" stroke-width=".1" points="438.0176,-180 369.9824,-180 369.9824,-144 438.0176,-144 438.0176,-180"/>
<text text-anchor="middle" x="404" y="-160.2" font-family="arial" font-size="6.00" fill="#000000">ct_web_component</text>
</g>
<!-- generic_code_complete&#45;&gt;ct_web_component -->
<g id="edge30" class="edge">
<title>generic_code_complete-&gt;ct_web_component</title>
<path fill="none" stroke="#000000" stroke-width=".1" d="M406.243,-215.8314C405.8587,-206.6078 405.3873,-195.295 404.976,-185.4246"/>
<polygon fill="#000000" stroke="#000000" stroke-width=".1" points="406.724,-185.336 404.7672,-180.4133 403.227,-185.4818 406.724,-185.336"/>
</g>
<!-- vo_web_component -->
<g id="node24" class="node">
<title>vo_web_component</title>
<polygon fill="#ffffff" stroke="#000000" stroke-width=".1" points="351.6863,-180 282.3137,-180 282.3137,-144 351.6863,-144 351.6863,-180"/>
<text text-anchor="middle" x="317" y="-160.2" font-family="arial" font-size="6.00" fill="#000000">vo_web_component</text>
</g>
<!-- generic_code_complete&#45;&gt;vo_web_component -->
<g id="edge32" class="edge">
<title>generic_code_complete-&gt;vo_web_component</title>
<path fill="none" stroke="#000000" stroke-width=".1" d="M384.2892,-215.8314C371.9249,-205.94 356.5572,-193.6458 343.6308,-183.3046"/>
<polygon fill="#000000" stroke="#000000" stroke-width=".1" points="344.7011,-181.9198 339.7035,-180.1628 342.5147,-184.6529 344.7011,-181.9198"/>
</g>
<!-- vc_web_component -->
<g id="node25" class="node">
<title>vc_web_component</title>
<polygon fill="#ffffff" stroke="#000000" stroke-width=".1" points="613.8511,-180 544.1489,-180 544.1489,-144 613.8511,-144 613.8511,-180"/>
<text text-anchor="middle" x="579" y="-160.2" font-family="arial" font-size="6.00" fill="#000000">vc_web_component</text>
</g>
<!-- generic_code_complete&#45;&gt;vc_web_component -->
<g id="edge34" class="edge">
<title>generic_code_complete-&gt;vc_web_component</title>
<path fill="none" stroke="#000000" stroke-width=".1" d="M446.7051,-221.8796C472.3832,-213.5211 506.256,-201.5095 535,-188 538.4229,-186.3913 541.9257,-184.5975 545.387,-182.7248"/>
<polygon fill="#000000" stroke="#000000" stroke-width=".1" points="546.5431,-184.0851 550.0699,-180.1322 544.8479,-181.023 546.5431,-184.0851"/>
</g>
<!-- eo_web_component -->
<g id="node26" class="node">
<title>eo_web_component</title>
<polygon fill="#ffffff" stroke="#000000" stroke-width=".1" points="526.021,-180 455.979,-180 455.979,-144 526.021,-144 526.021,-180"/>
<text text-anchor="middle" x="491" y="-160.2" font-family="arial" font-size="6.00" fill="#000000">eo_web_component</text>
</g>
<!-- generic_code_complete&#45;&gt;eo_web_component -->
<g id="edge36" class="edge">
<title>generic_code_complete-&gt;eo_web_component</title>
<path fill="none" stroke="#000000" stroke-width=".1" d="M428.1967,-215.8314C439.6372,-206.0252 453.8328,-193.8576 465.8321,-183.5725"/>
<polygon fill="#000000" stroke="#000000" stroke-width=".1" points="467.1526,-184.7455 469.81,-180.1628 464.8748,-182.0881 467.1526,-184.7455"/>
</g>
<!-- dev_ux_design -->
<g id="node32" class="node">
<title>dev_ux_design</title>
<polygon fill="#ffffff" stroke="#000000" stroke-width=".1" points="801.3511,-396 744.6489,-396 744.6489,-360 801.3511,-360 801.3511,-396"/>
<text text-anchor="middle" x="773" y="-376.2" font-family="arial" font-size="6.00" fill="#000000">dev_ux_design</text>
</g>
<!-- generic_code_complete&#45;&gt;dev_ux_design -->
<g id="edge44" class="edge">
<title>generic_code_complete-&gt;dev_ux_design</title>
<path fill="none" stroke="#000000" stroke-width=".1" d="M446.8808,-246.5031C474.3359,-255.9525 511.1051,-270.3068 541,-288 562.7441,-300.8692 562.3666,-312.7684 585,-324 646.4138,-354.4761 670.3412,-337.2035 735,-360 736.5835,-360.5583 738.1891,-361.1615 739.8002,-361.7972"/>
<polygon fill="#000000" stroke="#000000" stroke-width=".1" points="739.3434,-363.5016 744.633,-363.7887 740.6769,-360.2656 739.3434,-363.5016"/>
</g>
<!-- provider_complete -->
<g id="node22" class="node">
<title>provider_complete</title>
<polygon fill="#ffffff" stroke="#000000" stroke-width=".1" points="159.8419,-180 94.1581,-180 94.1581,-144 159.8419,-144 159.8419,-180"/>
<text text-anchor="middle" x="127" y="-160.2" font-family="arial" font-size="6.00" fill="#000000">provider_complete</text>
</g>
<!-- data_storage_google&#45;&gt;provider_complete -->
<g id="edge51" class="edge">
<title>data_storage_google-&gt;provider_complete</title>
<path fill="none" stroke="#000000" stroke-width=".1" d="M70.9257,-215.8314C81.0516,-206.1105 93.5948,-194.069 104.2487,-183.8412"/>
<polygon fill="#000000" stroke="#000000" stroke-width=".1" points="105.6854,-184.888 108.0804,-180.1628 103.2615,-182.3631 105.6854,-184.888"/>
</g>
<!-- login_google -->
<g id="node19" class="node">
<title>login_google</title>
<polygon fill="#ffffff" stroke="#000000" stroke-width=".1" points="160,-396 106,-396 106,-360 160,-360 160,-396"/>
<text text-anchor="middle" x="133" y="-376.2" font-family="arial" font-size="6.00" fill="#000000">login_google</text>
</g>
<!-- logout -->
<g id="node20" class="node">
<title>logout</title>
<polygon fill="#ffffff" stroke="#000000" stroke-width=".1" points="160,-324 106,-324 106,-288 160,-288 160,-324"/>
<text text-anchor="middle" x="133" y="-304.2" font-family="arial" font-size="6.00" fill="#000000">logout</text>
</g>
<!-- login_google&#45;&gt;logout -->
<g id="edge53" class="edge">
<title>login_google-&gt;logout</title>
<path fill="none" stroke="#000000" stroke-width=".1" d="M133,-359.8314C133,-350.6078 133,-339.295 133,-329.4246"/>
<polygon fill="#000000" stroke="#000000" stroke-width=".1" points="134.7501,-329.4132 133,-324.4133 131.2501,-329.4133 134.7501,-329.4132"/>
</g>
<!-- logout_google -->
<g id="node21" class="node">
<title>logout_google</title>
<polygon fill="#ffffff" stroke="#000000" stroke-width=".1" points="160,-252 106,-252 106,-216 160,-216 160,-252"/>
<text text-anchor="middle" x="133" y="-232.2" font-family="arial" font-size="6.00" fill="#000000">logout_google</text>
</g>
<!-- logout&#45;&gt;logout_google -->
<g id="edge54" class="edge">
<title>logout-&gt;logout_google</title>
<path fill="none" stroke="#000000" stroke-width=".1" d="M133,-287.8314C133,-278.6078 133,-267.295 133,-257.4246"/>
<polygon fill="#000000" stroke="#000000" stroke-width=".1" points="134.7501,-257.4132 133,-252.4133 131.2501,-257.4133 134.7501,-257.4132"/>
</g>
<!-- logout_web_component -->
<g id="node27" class="node">
<title>logout_web_component</title>
<polygon fill="#ffffff" stroke="#000000" stroke-width=".1" points="263.6912,-180 184.3088,-180 184.3088,-144 263.6912,-144 263.6912,-180"/>
<text text-anchor="middle" x="224" y="-160.2" font-family="arial" font-size="6.00" fill="#000000">logout_web_component</text>
</g>
<!-- logout&#45;&gt;logout_web_component -->
<g id="edge38" class="edge">
<title>logout-&gt;logout_web_component</title>
<path fill="none" stroke="#000000" stroke-width=".1" d="M145.511,-287.624C152.5192,-277.2339 161.3595,-263.9655 169,-252 183.5361,-229.2354 199.5802,-202.8258 210.5689,-184.5287"/>
<polygon fill="#000000" stroke="#000000" stroke-width=".1" points="212.1788,-185.2469 213.2498,-180.0589 209.1772,-183.4467 212.1788,-185.2469"/>
</g>
<!-- logout_google&#45;&gt;provider_complete -->
<g id="edge55" class="edge">
<title>logout_google-&gt;provider_complete</title>
<path fill="none" stroke="#000000" stroke-width=".1" d="M131.4859,-215.8314C130.7173,-206.6078 129.7746,-195.295 128.9521,-185.4246"/>
<polygon fill="#000000" stroke="#000000" stroke-width=".1" points="130.6937,-185.2506 128.5344,-180.4133 127.2058,-185.5414 130.6937,-185.2506"/>
</g>
<!-- provider_complete&#45;&gt;end -->
<g id="edge56" class="edge">
<title>provider_complete-&gt;end</title>
<path fill="none" stroke="#000000" stroke-width=".1" d="M130.1902,-143.7133C135.0966,-121.329 146.7204,-83.9471 172,-64 202.6033,-39.8521 315.437,-26.2198 371.6853,-20.7884"/>
<polygon fill="#000000" stroke="#000000" stroke-width=".1" points="372.1354,-22.5036 376.9474,-20.2883 371.8042,-19.0193 372.1354,-22.5036"/>
</g>
<!-- web_component_code_complete -->
<g id="node28" class="node">
<title>web_component_code_complete</title>
<polygon fill="#ffffff" stroke="#000000" stroke-width=".1" points="456.0296,-108 351.9704,-108 351.9704,-72 456.0296,-72 456.0296,-108"/>
<text text-anchor="middle" x="404" y="-88.2" font-family="arial" font-size="6.00" fill="#000000">web_component_code_complete</text>
</g>
<!-- ct_web_component&#45;&gt;web_component_code_complete -->
<g id="edge31" class="edge">
<title>ct_web_component-&gt;web_component_code_complete</title>
<path fill="none" stroke="#000000" stroke-width=".1" d="M404,-143.8314C404,-134.6078 404,-123.295 404,-113.4246"/>
<polygon fill="#000000" stroke="#000000" stroke-width=".1" points="405.7501,-113.4132 404,-108.4133 402.2501,-113.4133 405.7501,-113.4132"/>
</g>
<!-- vo_web_component&#45;&gt;web_component_code_complete -->
<g id="edge33" class="edge">
<title>vo_web_component-&gt;web_component_code_complete</title>
<path fill="none" stroke="#000000" stroke-width=".1" d="M338.9538,-143.8314C350.8029,-134.0252 365.5054,-121.8576 377.9332,-111.5725"/>
<polygon fill="#000000" stroke="#000000" stroke-width=".1" points="379.317,-112.6989 382.0533,-108.1628 377.0855,-110.0025 379.317,-112.6989"/>
</g>
<!-- vc_web_component&#45;&gt;web_component_code_complete -->
<g id="edge35" class="edge">
<title>vc_web_component-&gt;web_component_code_complete</title>
<path fill="none" stroke="#000000" stroke-width=".1" d="M550.0845,-143.8364C545.1396,-141.0439 539.9872,-138.3218 535,-136 511.4365,-125.0302 484.4815,-115.1404 461.1727,-107.3669"/>
<polygon fill="#000000" stroke="#000000" stroke-width=".1" points="461.5534,-105.6497 456.2568,-105.7407 460.4541,-108.9725 461.5534,-105.6497"/>
</g>
<!-- eo_web_component&#45;&gt;web_component_code_complete -->
<g id="edge37" class="edge">
<title>eo_web_component-&gt;web_component_code_complete</title>
<path fill="none" stroke="#000000" stroke-width=".1" d="M469.0462,-143.8314C457.1971,-134.0252 442.4946,-121.8576 430.0668,-111.5725"/>
<polygon fill="#000000" stroke="#000000" stroke-width=".1" points="430.9145,-110.0025 425.9467,-108.1628 428.683,-112.6989 430.9145,-110.0025"/>
</g>
<!-- logout_web_component&#45;&gt;web_component_code_complete -->
<g id="edge39" class="edge">
<title>logout_web_component-&gt;web_component_code_complete</title>
<path fill="none" stroke="#000000" stroke-width=".1" d="M256.3471,-143.9629C261.8364,-141.1552 267.5307,-138.3952 273,-136 296.8089,-125.5735 323.8025,-115.7693 347.0739,-107.9129"/>
<polygon fill="#000000" stroke="#000000" stroke-width=".1" points="347.7971,-109.5162 351.9807,-106.2665 346.6837,-106.198 347.7971,-109.5162"/>
</g>
<!-- web_component_code_complete&#45;&gt;end -->
<g id="edge40" class="edge">
<title>web_component_code_complete-&gt;end</title>
<path fill="none" stroke="#000000" stroke-width=".1" d="M404,-71.8314C404,-62.6078 404,-51.295 404,-41.4246"/>
<polygon fill="#000000" stroke="#000000" stroke-width=".1" points="405.7501,-41.4132 404,-36.4133 402.2501,-41.4133 405.7501,-41.4132"/>
</g>
<!-- physical_schema&#45;&gt;data_storage_google -->
<g id="edge52" class="edge">
<title>physical_schema-&gt;data_storage_google</title>
<path fill="none" stroke="#000000" stroke-width=".1" d="M593.9689,-297.1648C581.0835,-293.8062 565.9166,-290.2509 552,-288 351.7483,-255.6106 294.5247,-298.1931 97,-252 95.8683,-251.7353 94.7277,-251.4468 93.5825,-251.1378"/>
<polygon fill="#000000" stroke="#000000" stroke-width=".1" points="93.8352,-249.3884 88.5449,-249.6621 92.8512,-252.7472 93.8352,-249.3884"/>
</g>
<!-- dev_code_complete -->
<g id="node36" class="node">
<title>dev_code_complete</title>
<polygon fill="#ffff00" stroke="#000000" stroke-width=".1" points="755.6863,-252 686.3137,-252 686.3137,-216 755.6863,-216 755.6863,-252"/>
<text text-anchor="middle" x="721" y="-232.2" font-family="arial" font-size="6.00" fill="#000000">dev_code_complete</text>
</g>
<!-- physical_schema&#45;&gt;dev_code_complete -->
<g id="edge43" class="edge">
<title>physical_schema-&gt;dev_code_complete</title>
<path fill="none" stroke="#000000" stroke-width=".1" d="M649.2249,-287.8314C662.4134,-277.94 678.8056,-265.6458 692.5938,-255.3046"/>
<polygon fill="#000000" stroke="#000000" stroke-width=".1" points="693.8329,-256.5629 696.7829,-252.1628 691.7329,-253.7629 693.8329,-256.5629"/>
</g>
<!-- logical_schema -->
<g id="node30" class="node">
<title>logical_schema</title>
<polygon fill="#ffff00" stroke="#000000" stroke-width=".1" points="653.8404,-396 596.1596,-396 596.1596,-360 653.8404,-360 653.8404,-396"/>
<text text-anchor="middle" x="625" y="-376.2" font-family="arial" font-size="6.00" fill="#000000">logical_schema</text>
</g>
<!-- logical_schema&#45;&gt;choose_dataset -->
<g id="edge2" class="edge">
<title>logical_schema-&gt;choose_dataset</title>
<path fill="none" stroke="#000000" stroke-width=".1" d="M631.7079,-396.0217C642.5216,-428.4925 659.4966,-497.3969 627,-540 607.3501,-565.761 515.3866,-582.2584 464.3507,-589.5919"/>
<polygon fill="#000000" stroke="#000000" stroke-width=".1" points="463.9472,-587.8815 459.2418,-590.3151 464.4378,-591.347 463.9472,-587.8815"/>
</g>
<!-- logical_schema&#45;&gt;physical_schema -->
<g id="edge42" class="edge">
<title>logical_schema-&gt;physical_schema</title>
<path fill="none" stroke="#000000" stroke-width=".1" d="M625,-359.8314C625,-350.6078 625,-339.295 625,-329.4246"/>
<polygon fill="#000000" stroke="#000000" stroke-width=".1" points="626.7501,-329.4132 625,-324.4133 623.2501,-329.4133 626.7501,-329.4132"/>
</g>
<!-- splash_screen -->
<g id="node31" class="node">
<title>splash_screen</title>
<polygon fill="#ffffff" stroke="#000000" stroke-width=".1" points="726.1776,-396 671.8224,-396 671.8224,-360 726.1776,-360 726.1776,-396"/>
<text text-anchor="middle" x="699" y="-376.2" font-family="arial" font-size="6.00" fill="#000000">splash_screen</text>
</g>
<!-- dev_base_web_components -->
<g id="node33" class="node">
<title>dev_base_web_components</title>
<polygon fill="#ffffff" stroke="#000000" stroke-width=".1" points="879.3633,-324 786.6367,-324 786.6367,-288 879.3633,-288 879.3633,-324"/>
<text text-anchor="middle" x="833" y="-304.2" font-family="arial" font-size="6.00" fill="#000000">dev_base_web_components</text>
</g>
<!-- dev_ux_design&#45;&gt;dev_base_web_components -->
<g id="edge45" class="edge">
<title>dev_ux_design-&gt;dev_base_web_components</title>
<path fill="none" stroke="#000000" stroke-width=".1" d="M788.1405,-359.8314C796.1089,-350.2693 805.9484,-338.4619 814.38,-328.344"/>
<polygon fill="#000000" stroke="#000000" stroke-width=".1" points="815.799,-329.3747 817.6556,-324.4133 813.1103,-327.1341 815.799,-329.3747"/>
</g>
<!-- dev_graphical -->
<g id="node35" class="node">
<title>dev_graphical</title>
<polygon fill="#ffffff" stroke="#000000" stroke-width=".1" points="951,-324 897,-324 897,-288 951,-288 951,-324"/>
<text text-anchor="middle" x="924" y="-304.2" font-family="arial" font-size="6.00" fill="#000000">dev_graphical</text>
</g>
<!-- dev_ux_design&#45;&gt;dev_graphical -->
<g id="edge47" class="edge">
<title>dev_ux_design-&gt;dev_graphical</title>
<path fill="none" stroke="#000000" stroke-width=".1" d="M801.4485,-364.8788C824.7782,-354.0617 858.6246,-338.238 888,-324 889.4462,-323.299 890.9232,-322.5787 892.4137,-321.8482"/>
<polygon fill="#000000" stroke="#000000" stroke-width=".1" points="893.1958,-323.4138 896.9085,-319.6351 891.6497,-320.2737 893.1958,-323.4138"/>
</g>
<!-- dev_base_web_components&#45;&gt;dev_code_complete -->
<g id="edge46" class="edge">
<title>dev_base_web_components-&gt;dev_code_complete</title>
<path fill="none" stroke="#000000" stroke-width=".1" d="M804.7377,-287.8314C789.2184,-277.8547 769.8968,-265.4336 753.7252,-255.0376"/>
<polygon fill="#000000" stroke="#000000" stroke-width=".1" points="754.4055,-253.3946 749.2533,-252.1628 752.5129,-256.3387 754.4055,-253.3946"/>
</g>
<!-- dev_graph_web_components -->
<g id="node34" class="node">
<title>dev_graph_web_components</title>
<polygon fill="#ffffff" stroke="#000000" stroke-width=".1" points="768.1959,-324 673.8041,-324 673.8041,-288 768.1959,-288 768.1959,-324"/>
<text text-anchor="middle" x="721" y="-304.2" font-family="arial" font-size="6.00" fill="#000000">dev_graph_web_components</text>
</g>
<!-- dev_graph_web_components&#45;&gt;dev_code_complete -->
<g id="edge49" class="edge">
<title>dev_graph_web_components-&gt;dev_code_complete</title>
<path fill="none" stroke="#000000" stroke-width=".1" d="M721,-287.8314C721,-278.6078 721,-267.295 721,-257.4246"/>
<polygon fill="#000000" stroke="#000000" stroke-width=".1" points="722.7501,-257.4132 721,-252.4133 719.2501,-257.4133 722.7501,-257.4132"/>
</g>
<!-- dev_graphical&#45;&gt;dev_code_complete -->
<g id="edge48" class="edge">
<title>dev_graphical-&gt;dev_code_complete</title>
<path fill="none" stroke="#000000" stroke-width=".1" d="M896.6798,-291.8068C893.7769,-290.4593 890.8458,-289.1638 888,-288 845.3923,-270.5758 794.9158,-254.9113 760.6952,-244.9975"/>
<polygon fill="#000000" stroke="#000000" stroke-width=".1" points="761.0561,-243.2804 755.767,-243.577 760.0867,-246.6434 761.0561,-243.2804"/>
</g>
<!-- dev_code_complete&#45;&gt;end -->
<g id="edge50" class="edge">
<title>dev_code_complete-&gt;end</title>
<path fill="none" stroke="#000000" stroke-width=".1" d="M716.2896,-215.7413C706.1762,-180.4158 678.8922,-102.7885 626,-64 596.1742,-42.1272 490.494,-27.5778 436.4081,-21.3874"/>
<polygon fill="#000000" stroke="#000000" stroke-width=".1" points="436.5042,-19.6372 431.3393,-20.8145 436.1111,-23.1151 436.5042,-19.6372"/>
</g>
</g>
</svg>